{
    "asset" : {
        "generator" : "Khronos glTF Blender I/O v1.8.19",
        "version" : "2.0"
    },
    "scene" : 0,
    "scenes" : [
        {
            "name" : "Scene",
            "nodes" : [
                9
            ]
        }
    ],
    "nodes" : [
        {
            "mesh" : 0,
            "name" : "Object_6"
        },
        {
            "children" : [
                0
            ],
            "name" : "Circle_ring_0_2"
        },
        {
            "children" : [
                1
            ],
            "name" : "Circle_3",
            "rotation" : [
                -0.702197790145874,
                -0.08317552506923676,
                -0.08317554742097855,
                0.7021979093551636
            ],
            "scale" : [
                163.3608856201172,
                163.3608856201172,
                163.36090087890625
            ]
        },
        {
            "mesh" : 1,
            "name" : "Object_9"
        },
        {
            "children" : [
                3
            ],
            "name" : "Sphere_Material.002_0_4"
        },
        {
            "children" : [
                4
            ],
            "name" : "Sphere_5",
            "rotation" : [
                -0.7071068286895752,
                0,
                0,
                0.7071067094802856
            ],
            "scale" : [
                100,
                100,
                100
            ]
        },
        {
            "children" : [
                2,
                5
            ],
            "name" : "Saturn_6",
            "rotation" : [
                0.7071068286895752,
                0,
                0,
                0.7071067094802856
            ]
        },
        {
            "children" : [
                6
            ],
            "name" : "GLTF_SceneRootNode",
            "rotation" : [
                0.7071068286895752,
                0,
                0,
                0.7071068286895752
            ]
        },
        {
            "children" : [
                7
            ],
            "name" : "root"
        },
        {
            "children" : [
                8
            ],
            "name" : "Sketchfab_model",
            "rotation" : [
                -0.7071068286895752,
                0,
                0,
                0.7071068286895752
            ]
        }
    ],
    "materials" : [
        {
            "doubleSided" : true,
            "name" : "ring.001",
            "pbrMetallicRoughness" : {
                "baseColorTexture" : {
                    "index" : 0
                }
            }
        },
        {
            "doubleSided" : true,
            "name" : "Material.001",
            "pbrMetallicRoughness" : {
                "baseColorTexture" : {
                    "index" : 1
                },
                "metallicFactor" : 0.6000000238418579
            }
        }
    ],
    "meshes" : [
        {
            "name" : "Object_0",
            "primitives" : [
                {
                    "attributes" : {
                        "POSITION" : 0,
                        "NORMAL" : 1,
                        "TEXCOORD_0" : 2
                    },
                    "indices" : 3,
                    "material" : 0
                }
            ]
        },
        {
            "name" : "Object_1",
            "primitives" : [
                {
                    "attributes" : {
                        "POSITION" : 4,
                        "NORMAL" : 5,
                        "TEXCOORD_0" : 6
                    },
                    "indices" : 7,
                    "material" : 1
                }
            ]
        }
    ],
    "textures" : [
        {
            "sampler" : 0,
            "source" : 0
        },
        {
            "sampler" : 0,
            "source" : 1
        }
    ],
    "images" : [
        {
            "mimeType" : "image/jpeg",
            "name" : "ring_baseColor",
            "uri" : "ring_baseColor.jpg"
        },
        {
            "mimeType" : "image/jpeg",
            "name" : "Material.002_baseColor",
            "uri" : "Material_002_baseColor.jpg"
        }
    ],
    "accessors" : [
        {
            "bufferView" : 0,
            "componentType" : 5126,
            "count" : 696,
            "max" : [
                1.2027465105056763,
                -0.00041665718890726566,
                1.2027466297149658
            ],
            "min" : [
                -1.2027465105056763,
                -0.009583334438502789,
                -1.2027463912963867
            ],
            "type" : "VEC3"
        },
        {
            "bufferView" : 1,
            "componentType" : 5126,
            "count" : 696,
            "type" : "VEC3"
        },
        {
            "bufferView" : 2,
            "componentType" : 5126,
            "count" : 696,
            "type" : "VEC2"
        },
        {
            "bufferView" : 3,
            "componentType" : 5123,
            "count" : 3072,
            "type" : "SCALAR"
        },
        {
            "bufferView" : 4,
            "componentType" : 5126,
            "count" : 3223,
            "max" : [
                0.999999463558197,
                1,
                0.999998927116394
            ],
            "min" : [
                -0.9999986290931702,
                -1,
                -0.9999982118606567
            ],
            "type" : "VEC3"
        },
        {
            "bufferView" : 5,
            "componentType" : 5126,
            "count" : 3223,
            "type" : "VEC3"
        },
        {
            "bufferView" : 6,
            "componentType" : 5126,
            "count" : 3223,
            "type" : "VEC2"
        },
        {
            "bufferView" : 7,
            "componentType" : 5123,
            "count" : 17664,
            "type" : "SCALAR"
        }
    ],
    "bufferViews" : [
        {
            "buffer" : 0,
            "byteLength" : 8352,
            "byteOffset" : 0
        },
        {
            "buffer" : 0,
            "byteLength" : 8352,
            "byteOffset" : 8352
        },
        {
            "buffer" : 0,
            "byteLength" : 5568,
            "byteOffset" : 16704
        },
        {
            "buffer" : 0,
            "byteLength" : 6144,
            "byteOffset" : 22272
        },
        {
            "buffer" : 0,
            "byteLength" : 38676,
            "byteOffset" : 28416
        },
        {
            "buffer" : 0,
            "byteLength" : 38676,
            "byteOffset" : 67092
        },
        {
            "buffer" : 0,
            "byteLength" : 25784,
            "byteOffset" : 105768
        },
        {
            "buffer" : 0,
            "byteLength" : 35328,
            "byteOffset" : 131552
        }
    ],
    "samplers" : [
        {
            "magFilter" : 9729,
            "minFilter" : 9987
        }
    ],
    "buffers" : [
        {
            "byteLength" : 166880,
            "uri" : "untitled.bin"
        }
    ]
}
