{
    "asset" : {
        "generator" : "Khronos glTF Blender I/O v1.8.19",
        "version" : "2.0"
    },
    "scene" : 0,
    "scenes" : [
        {
            "name" : "Scene",
            "nodes" : [
                0
            ]
        }
    ],
    "nodes" : [
        {
            "mesh" : 0,
            "name" : "Sphere.006_Material.006_0"
        }
    ],
    "materials" : [
        {
            "doubleSided" : true,
            "name" : "Material.055",
            "pbrMetallicRoughness" : {
                "baseColorTexture" : {
                    "index" : 0
                },
                "metallicFactor" : 0,
                "roughnessFactor" : 0.8211145401000977
            }
        }
    ],
    "meshes" : [
        {
            "name" : "Sphere.006_Material.006_0.006",
            "primitives" : [
                {
                    "attributes" : {
                        "POSITION" : 0,
                        "NORMAL" : 1,
                        "TEXCOORD_0" : 2
                    },
                    "indices" : 3,
                    "material" : 0
                }
            ]
        }
    ],
    "textures" : [
        {
            "sampler" : 0,
            "source" : 0
        }
    ],
    "images" : [
        {
            "mimeType" : "image/png",
            "name" : "Material.006_baseColor",
            "uri" : "Material_006_baseColor.png"
        }
    ],
    "accessors" : [
        {
            "bufferView" : 0,
            "componentType" : 5126,
            "count" : 350,
            "max" : [
                1.1936447620391846,
                1.3159642219543457,
                1
            ],
            "min" : [
                -1.3348196744918823,
                -1.3159624338150024,
                -1
            ],
            "type" : "VEC3"
        },
        {
            "bufferView" : 1,
            "componentType" : 5126,
            "count" : 350,
            "type" : "VEC3"
        },
        {
            "bufferView" : 2,
            "componentType" : 5126,
            "count" : 350,
            "type" : "VEC2"
        },
        {
            "bufferView" : 3,
            "componentType" : 5123,
            "count" : 912,
            "type" : "SCALAR"
        }
    ],
    "bufferViews" : [
        {
            "buffer" : 0,
            "byteLength" : 4200,
            "byteOffset" : 0
        },
        {
            "buffer" : 0,
            "byteLength" : 4200,
            "byteOffset" : 4200
        },
        {
            "buffer" : 0,
            "byteLength" : 2800,
            "byteOffset" : 8400
        },
        {
            "buffer" : 0,
            "byteLength" : 1824,
            "byteOffset" : 11200
        }
    ],
    "samplers" : [
        {
            "magFilter" : 9729,
            "minFilter" : 9987
        }
    ],
    "buffers" : [
        {
            "byteLength" : 13024,
            "uri" : "scene.bin"
        }
    ]
}
