{
    "asset" : {
        "generator" : "Khronos glTF Blender I/O v1.8.19",
        "version" : "2.0"
    },
    "scene" : 0,
    "scenes" : [
        {
            "name" : "Scene",
            "nodes" : [
                0
            ]
        }
    ],
    "nodes" : [
        {
            "mesh" : 0,
            "name" : "nave futurama_Material #4_0"
        }
    ],
    "materials" : [
        {
            "doubleSided" : true,
            "name" : "Material_4",
            "pbrMetallicRoughness" : {
                "baseColorTexture" : {
                    "index" : 0
                },
                "roughnessFactor" : 0.5017149448394775
            }
        }
    ],
    "meshes" : [
        {
            "name" : "nave futurama_Material #4_0",
            "primitives" : [
                {
                    "attributes" : {
                        "POSITION" : 0,
                        "NORMAL" : 1,
                        "TEXCOORD_0" : 2
                    },
                    "indices" : 3,
                    "material" : 0
                }
            ]
        }
    ],
    "textures" : [
        {
            "sampler" : 0,
            "source" : 0
        }
    ],
    "images" : [
        {
            "mimeType" : "image/jpeg",
            "name" : "Material_4_baseColor",
            "uri" : "Material_4_baseColor.jpg"
        }
    ],
    "accessors" : [
        {
            "bufferView" : 0,
            "componentType" : 5126,
            "count" : 2637,
            "max" : [
                1.0296968221664429,
                2.761350393295288,
                1.0726100206375122
            ],
            "min" : [
                -1.1125977039337158,
                -3.376007556915283,
                -1.1158069372177124
            ],
            "type" : "VEC3"
        },
        {
            "bufferView" : 1,
            "componentType" : 5126,
            "count" : 2637,
            "type" : "VEC3"
        },
        {
            "bufferView" : 2,
            "componentType" : 5126,
            "count" : 2637,
            "type" : "VEC2"
        },
        {
            "bufferView" : 3,
            "componentType" : 5123,
            "count" : 6900,
            "type" : "SCALAR"
        }
    ],
    "bufferViews" : [
        {
            "buffer" : 0,
            "byteLength" : 31644,
            "byteOffset" : 0
        },
        {
            "buffer" : 0,
            "byteLength" : 31644,
            "byteOffset" : 31644
        },
        {
            "buffer" : 0,
            "byteLength" : 21096,
            "byteOffset" : 63288
        },
        {
            "buffer" : 0,
            "byteLength" : 13800,
            "byteOffset" : 84384
        }
    ],
    "samplers" : [
        {
            "magFilter" : 9729,
            "minFilter" : 9987
        }
    ],
    "buffers" : [
        {
            "byteLength" : 98184,
            "uri" : "scene.bin"
        }
    ]
}
